<svg data-name="Layer 1" xmlns="http://www.w3.org/2000/svg" viewBox="0 0 357.319 236.988"><path d="M224.457 61.646h12.3a26.515 26.515 0 0 1 .481 3.5c.023 20.489.151 40.98-.045 61.468a25.93 25.93 0 0 1-20.773 25.366 25.6 25.6 0 0 1-28.632-14.986 34.743 34.743 0 0 1-2.333-12.607c-.308-11.819-.126-23.652-.118-35.479 0-6.2-2.2-11.134-8.246-13.54-9.035-3.593-17.76 2.716-17.917 13.113-.191 12.657.064 25.321-.1 37.979A25.915 25.915 0 0 1 132 152.434c-12.059-.391-23.79-10.067-24.253-22.413-.847-22.584-.247-45.221-.247-68.221h12.556v5.795c0 19.157-.042 38.314.032 57.47.029 7.571 3.9 12.764 10.2 14.15 8.457 1.861 15.709-4.005 15.879-13.3.232-12.656-.052-25.321.139-37.979.184-12.217 7.821-22.344 18.809-25.468a25.9 25.9 0 0 1 33 24.467c.27 12.154.04 24.32.1 36.479a28.319 28.319 0 0 0 .61 6.435 12.9 12.9 0 0 0 25.16-.819 44.431 44.431 0 0 0 .45-7.462c.037-19.806.022-39.606.022-59.922z"/><path fill="#d63aff" d="M63.495 102.448h230.329v11H63.495z"/><path d="M175.89 61.72a25.863 25.863 0 0 0-10.773.742c-10.988 3.124-18.625 13.251-18.809 25.468-.136 9.056-.034 18.116-.047 27.174h12.866c-.006-8.875-.088-17.751.046-26.624.15-9.935 8.125-16.131 16.717-13.527zM236.757 61.646h-12.3c0 20.261.015 40.01-.018 59.758h12.787c.132-18.752.034-37.506.013-56.259a26.516 26.516 0 0 0-.482-3.499z"/><text transform="translate(69.22 190.706)" font-size="22.796" font-family="Monaco, Monaco">token<tspan x="68.399" y="0" fill="#d63aff">interceptor</tspan></text></svg>